<svg width="38" height="50" viewBox="0 0 38 50" fill="none" xmlns="http://www.w3.org/2000/svg">
<path d="M15.529 33.0696C14.2513 39.9529 12.6959 46.5533 8.08013 50C6.65853 39.5969 10.1734 31.7819 11.8046 23.4871C9.02197 18.6643 12.1404 8.95554 18.0086 11.3468C25.2302 14.2909 11.7541 29.2796 20.8013 31.1531C30.2474 33.1075 34.1057 14.2783 28.2476 8.15258C19.7837 -0.687571 3.61081 7.9531 5.60054 20.6111C6.08535 23.7068 9.18862 24.6461 6.84033 28.9185C1.42413 27.6787 -0.19189 23.2801 0.0176875 17.4144C0.350992 7.81928 8.39323 1.09763 16.4582 0.168417C26.6593 -1.00825 36.2318 4.02415 37.5523 13.9046C39.0421 25.0552 32.9492 37.1349 22.0436 36.2638C19.0868 36.029 17.8444 34.5215 15.529 33.0696Z" fill="#D27C2C"/>
</svg>
