<svg width="45" height="50" viewBox="0 0 45 50" fill="none" xmlns="http://www.w3.org/2000/svg">
<path d="M35.3301 7.83333C33.4317 5.66535 32.3854 2.88166 32.3857 0H23.8023V34.4444C23.7375 36.3089 22.951 38.0752 21.6088 39.3708C20.2665 40.6664 18.4734 41.39 16.6079 41.3889C12.6635 41.3889 9.38568 38.1667 9.38568 34.1667C9.38568 29.3889 13.9968 25.8056 18.7468 27.2778V18.5C9.16346 17.2222 0.774567 24.6667 0.774567 34.1667C0.774567 43.4167 8.44124 50 16.5801 50C25.3023 50 32.3857 42.9167 32.3857 34.1667V16.6944C35.8662 19.194 40.045 20.5351 44.3301 20.5278V11.9444C44.3301 11.9444 39.1079 12.1944 35.3301 7.83333Z" fill="#D27C2C"/>
</svg>
